<svg xmlns="http://www.w3.org/2000/svg" width="175" height="155.026" viewBox="0 0 175 155.026"><defs><style>.a{fill:#fc0067;}</style></defs><g transform="translate(-90 -255.759)"><g transform="translate(90 255.759)"><path class="a" d="M281.736,174.581H268.711a2.919,2.919,0,0,1-2.911-2.911V56.411a2.919,2.919,0,0,1,2.911-2.911h13.025a2.919,2.919,0,0,1,2.911,2.911V171.634A2.927,2.927,0,0,1,281.736,174.581Z" transform="translate(-178.555 -53.5)"/><path class="a" d="M279.234,424.7h-8.186a5.357,5.357,0,0,0-5.348,5.348v9.278a5.357,5.357,0,0,0,5.348,5.348h8.186a5.357,5.357,0,0,0,5.348-5.348v-9.278A5.334,5.334,0,0,0,279.234,424.7Z" transform="translate(-178.491 -289.648)"/><path class="a" d="M394.777,53.5H351.7V83.734a5.331,5.331,0,0,0,9.1,3.784Z" transform="translate(-233.202 -53.5)"/><path class="a" d="M381.952,140.964l-5.712,5.712a5.356,5.356,0,0,0-.364,7.167,56.421,56.421,0,0,1-21.138,88.373,5.329,5.329,0,0,0-3.238,4.912v8.8a5.329,5.329,0,0,0,7.2,4.984,75.368,75.368,0,0,0,49.371-70.728,74.578,74.578,0,0,0-18.3-48.935A5.342,5.342,0,0,0,381.952,140.964Z" transform="translate(-233.075 -108.147)"/><path class="a" d="M93.853,59.125A75.306,75.306,0,0,0,44.7,124.941H30.8a4.8,4.8,0,0,0-4.8,4.8v8.7a5.357,5.357,0,0,0,5.348,5.348H45.865A75.04,75.04,0,0,0,64.2,180.279a.036.036,0,0,0,.036.036,3.487,3.487,0,0,0,5.094.109l8.259-8.259a3.49,3.49,0,0,0,.182-4.766,2.548,2.548,0,0,1-.291-.364,57.123,57.123,0,0,1-12.3-23.248h23.9a5.357,5.357,0,0,0,5.348-5.348v-8.623a4.876,4.876,0,0,0-4.875-4.875h-25.9A56.376,56.376,0,0,1,97.928,77.826a5.282,5.282,0,0,0,3.2-4.875v-8.8A5.443,5.443,0,0,0,93.853,59.125Z" transform="translate(-26 -56.869)"/><path class="a" d="M113.9,417.277h43.077V387.043a5.331,5.331,0,0,0-9.1-3.784Z" transform="translate(-81.92 -262.288)"/></g></g></svg>